<?xml version="1.0" encoding="iso-8859-1"?>
<!-- Generator: Adobe Illustrator 21.0.0, SVG Export Plug-In . SVG Version: 6.00 Build 0)  -->
<svg version="1.1" id="Capa_1" xmlns="http://www.w3.org/2000/svg" xmlns:xlink="http://www.w3.org/1999/xlink" x="0px" y="0px"
	 viewBox="0 0 511.998 511.998" style="enable-background:new 0 0 511.998 511.998;" xml:space="preserve">
<path style="fill:#FFCE71;" d="M332.237,443.244l2.323-26.55l21.831,15.286l0,0c2.577,1.805,5.922,2.097,8.773,0.768l19.841-9.252
	c4.842-2.258,6.575-8.272,3.676-12.759l-74.468-115.314l-153.755,71.697l40.469,131.167c1.575,5.105,7.296,7.643,12.137,5.385
	l114.123-53.216C330.037,449.128,331.963,446.378,332.237,443.244L332.237,443.244z"/>
<path style="fill:#E5B965;" d="M237.428,481.268L196.96,350.1l-36.503,17.021l40.469,131.167c1.575,5.105,7.296,7.643,12.137,5.385
	l36.503-17.021C244.723,488.911,239.003,486.373,237.428,481.268z"/>
<path style="fill:#A2735E;" d="M242.301,289.508l-40.153,18.724L76.617,39.028C71.447,27.94,76.244,14.76,87.332,9.59l0,0
	C98.42,4.42,111.6,9.217,116.77,20.305L242.301,289.508z"/>
<path style="fill:#916754;" d="M97.482,7.53c-3.392-0.124-6.862,0.527-10.15,2.06c-11.088,5.17-15.885,18.35-10.715,29.438
	l125.532,269.204l18.251-8.511L94.869,30.517C91.231,22.716,92.533,13.884,97.482,7.53z"/>
<path style="fill:#6CB6DE;" d="M255.96,246.42l-95.598,44.577c-16.06,7.489-23.008,26.579-15.52,42.638l15.614,33.485
	l153.756-71.697l-15.614-33.485C291.11,245.879,272.02,238.931,255.96,246.42z"/>
<path style="fill:#8BD4BC;" d="M255.96,246.42l-95.598,44.577c-16.06,7.489-23.008,26.579-15.52,42.638l4.902,10.512l153.756-71.697
	l-4.902-10.512C291.11,245.879,272.02,238.931,255.96,246.42z"/>
<path style="fill:#70AB98;" d="M187.739,278.231l-27.377,12.766c-16.06,7.489-23.008,26.579-15.519,42.639l4.902,10.511
	l27.377-12.766l-4.902-10.511C164.731,304.811,171.679,285.72,187.739,278.231z"/>
<rect x="147.157" y="307.114" transform="matrix(0.9063 -0.4226 0.4226 0.9063 -113.4113 127.9959)" style="fill:#4A5359;" width="169.646" height="25.348"/>
<path d="M320.794,291.79l-10.496-22.509v-0.001c0,0,0-0.001-0.001-0.001l-4.901-10.51c-6.477-13.889-20.567-22.863-35.898-22.863
	c-5.798,0-11.419,1.251-16.708,3.717l-20.926,9.758l-44.482-95.393c-1.75-3.754-6.214-5.381-9.967-3.627
	c-3.754,1.75-5.378,6.213-3.628,9.967l44.482,95.392l-26.558,12.384L83.415,35.857c-1.654-3.547-1.828-7.525-0.489-11.203
	c1.339-3.677,4.029-6.613,7.577-8.268c3.547-1.653,7.526-1.826,11.203-0.489c3.678,1.339,6.614,4.029,8.268,7.576l51.981,111.476
	c1.75,3.753,6.213,5.379,9.967,3.627c3.754-1.75,5.378-6.213,3.628-9.967L123.568,17.134c-3.347-7.178-9.29-12.623-16.732-15.332
	c-7.442-2.707-15.495-2.355-22.672,0.99C76.986,6.14,71.54,12.081,68.831,19.524c-2.709,7.442-2.357,15.494,0.99,22.673
	l108.298,232.245l-20.925,9.758c-9.583,4.469-16.853,12.401-20.469,22.338c-3.616,9.937-3.147,20.686,1.322,30.269l4.9,10.507
	c0.001,0.001,0.001,0.003,0.002,0.004c0,0,0.001,0.002,0.002,0.003l10.495,22.506l40.316,130.674
	c1.39,4.505,4.659,8.185,8.969,10.097c2.107,0.936,4.361,1.401,6.613,1.401c2.354,0,4.708-0.51,6.892-1.528l60.357-28.146
	c3.754-1.75,5.378-6.213,3.628-9.967c-1.75-3.754-6.215-5.381-9.967-3.627l-60.358,28.146c-0.445,0.207-0.834,0.12-1.083,0.01
	c-0.248-0.11-0.574-0.34-0.719-0.809l-38.542-124.923l141.908-66.173l70.922,109.824c0.266,0.412,0.232,0.81,0.158,1.069
	c-0.075,0.261-0.258,0.615-0.704,0.823l-19.842,9.252c-0.422,0.195-0.92,0.151-1.301-0.114l-21.831-15.286
	c-2.196-1.539-5.044-1.786-7.471-0.653c-2.429,1.132-4.068,3.474-4.302,6.144l-2.322,26.549c-0.041,0.464-0.328,0.874-0.75,1.071
	l-28.387,13.237c-3.754,1.75-5.378,6.213-3.628,9.967c1.75,3.753,6.212,5.379,9.967,3.627l28.388-13.237
	c5.262-2.454,8.846-7.572,9.353-13.357l1.19-13.608l11.19,7.835c4.756,3.331,10.982,3.876,16.244,1.421l19.841-9.252
	c4.273-1.992,7.473-5.733,8.778-10.265c1.305-4.53,0.586-9.4-1.971-13.359L320.794,291.79z M304.247,291.796l-140.161,65.358
	l-4.374-9.38l140.161-65.358L304.247,291.796z M150.819,311.668c2.246-6.171,6.761-11.098,12.712-13.873l95.598-44.577
	c3.289-1.534,6.777-2.312,10.369-2.312c9.525,0,18.28,5.575,22.303,14.203l1.732,3.715l-140.161,65.358l-1.732-3.715
	C148.865,324.515,148.573,317.839,150.819,311.668z"/>
<path d="M437.471,226.244H314.234c-4.142,0-7.5,3.357-7.5,7.5s3.358,7.5,7.5,7.5h123.237c4.142,0,7.5-3.357,7.5-7.5
	S441.613,226.244,437.471,226.244z"/>
<path d="M426.312,264.95h-57.999c-4.142,0-7.5,3.357-7.5,7.5c0,4.143,3.358,7.5,7.5,7.5h57.999c4.142,0,7.5-3.357,7.5-7.5
	C433.812,268.307,430.454,264.95,426.312,264.95z"/>
<path d="M287.462,390.038c-4.111-0.442-7.821,2.52-8.273,6.637c-0.461,4.202-3.149,7.863-7.014,9.555
	c-3.865,1.694-8.379,1.183-11.778-1.331c-3.332-2.462-8.027-1.759-10.489,1.573c-2.462,3.331-1.758,8.027,1.573,10.489
	c4.689,3.466,10.316,5.25,15.979,5.25c3.641,0,7.297-0.737,10.729-2.239c8.77-3.838,14.866-12.138,15.911-21.66
	C294.551,394.193,291.579,390.489,287.462,390.038z"/>
<path d="M321.793,368.246c1.004,0,2.024-0.203,3.003-0.631c3.794-1.661,5.524-6.084,3.863-9.878l-4.553-10.402
	c-1.661-3.795-6.081-5.522-9.878-3.864c-3.794,1.661-5.524,6.084-3.863,9.878l4.553,10.402
	C316.151,366.567,318.904,368.246,321.793,368.246z"/>
<path d="M197.538,394.54c-3.794,1.661-5.524,6.084-3.863,9.878l4.553,10.402c1.232,2.816,3.985,4.495,6.875,4.495
	c1.004,0,2.024-0.203,3.003-0.631c3.794-1.661,5.524-6.084,3.863-9.878l-4.553-10.402
	C205.755,394.609,201.334,392.881,197.538,394.54z"/>
<g>
	<path style="fill:#F27F6F;" d="M325.197,390.187c-2.889,0-5.642-1.679-6.875-4.495c-1.661-3.795,0.069-8.217,3.864-9.878
		l10.403-4.553c3.795-1.658,8.217,0.068,9.877,3.864c1.661,3.795-0.069,8.217-3.864,9.878l-10.403,4.553
		C327.222,389.984,326.201,390.187,325.197,390.187z"/>
	<path style="fill:#F27F6F;" d="M208.507,441.256c-2.889,0-5.642-1.679-6.875-4.495c-1.661-3.795,0.069-8.217,3.864-9.878
		l10.403-4.553c3.795-1.659,8.216,0.069,9.877,3.864c1.661,3.795-0.069,8.217-3.864,9.878l-10.403,4.553
		C210.531,441.052,209.51,441.256,208.507,441.256z"/>
</g>
<g>
</g>
<g>
</g>
<g>
</g>
<g>
</g>
<g>
</g>
<g>
</g>
<g>
</g>
<g>
</g>
<g>
</g>
<g>
</g>
<g>
</g>
<g>
</g>
<g>
</g>
<g>
</g>
<g>
</g>
</svg>
