<svg viewBox="0 -32 512.00141 512" xmlns="http://www.w3.org/2000/svg"><path d="m425.003906 16.664062c-5.59375-3.800781-12.675781-5.984374-19.421875-5.984374-7.925781 0-14.808593 2.851562-19.902343 8.242187l-.90625.96875c-3.539063 3.769531-5.351563 5.589844-7.902344 5.691406l-.222656.003907c-2.636719 0-5.132813-2.054688-8.984376-5.40625-6.839843-5.949219-13.570312-9.679688-21.183593-11.730469-5.921875-1.589844-11.898438-2.394531-17.765625-2.394531-9.652344 0-18.679688 2.207031-26.101563 6.382812-13.566406 7.617188-21.984375 22.648438-20.46875 36.546875 1.519531 14.085937 14.078125 25.980469 27.417969 25.980469.714844 0 1.433594-.035156 2.105469-.101563.074219-.007812.148437-.015625.222656-.015625.867187 0 1.640625.550782 1.921875 1.375.308594.890625-.035156 1.867188-.832031 2.378906-10.957031 6.953126-17.171875 21.132813-15.113281 34.472657 1.980468 12.898437 11.378906 24.699219 23.9375 30.0625 5.390624 2.304687 11.230468 3.472656 17.367187 3.472656 7.492187 0 15.011719-1.796875 21.75-5.195313 10.792969-5.433593 20.441406-17.167968 18-29.085937-.222656-1.089844.453125-2.140625 1.535156-2.386719.152344-.035156.304688-.054687.457031-.054687.929688 0 1.738282.632812 1.96875 1.539062 2.289063 8.976563 12.21875 16.003907 22.601563 16.003907.417969 0 .839844-.007813 1.253906-.03125 9.851563-.523438 19.710938-6.574219 26.367188-16.1875 5.375-7.753907 8.863281-17.546876 10.972656-30.816407 2.164063-13.640625 2.007813-25.167969-.472656-35.242187-3.023438-12.277344-9.628907-22.394532-18.601563-28.488282zm-108.882812 31.328126c.671875-1.710938 1.738281-3.265626 3.066406-4.574219-1.308594 1.300781-2.355469 2.855469-3.039062 4.582031-2.210938 5.632812-.222657 12.605469 4.605468 16.238281-4.851562-3.621093-6.84375-10.605469-4.632812-16.246093zm8.691406 71.664062c.777344.886719 1.742188 1.597656 2.84375 2.042969-1.097656-.433594-2.0625-1.148438-2.84375-2.042969zm26.980469-25.371094c-1.390625 0-2.707031.265625-3.914063.789063-5.082031 2.21875-7.726562 8.882812-5.574218 14-2.433594-2.871094-5.996094-4.582031-9.53125-4.582031-.378907 0-.757813.019531-1.128907.058593-4.152343.429688-7.746093 3.386719-8.746093 7.191407-.476563 1.816406-.300782 3.71875.375 5.398437-.691407-1.695313-.878907-3.609375-.40625-5.402344 1-3.824219 4.609374-6.792969 8.773437-7.21875.367187-.039062.742187-.058593 1.117187-.058593 1.972657 0 3.984376.53125 5.820313 1.539062l2.734375 1.507812.222656-3.117187c.292969-4.128906 2.785156-7.800781 6.34375-9.347656 1.238282-.539063 2.582032-.8125 3.992188-.8125 4.351562 0 8.394531 2.53125 10.035156 6.304687-1.632812-3.679687-5.792969-6.25-10.113281-6.25zm59.65625-36.59375c-2.527344-1.996094-5.542969-3.09375-8.488281-3.09375-.699219 0-1.390626.0625-2.070313.183594-3.570313.652344-6.808594 2.992188-8.882813 6.414062-2.078124 3.445313-2.644531 7.398438-1.589843 10.851563-2.519531-5.195313-8.511719-7.039063-12.875-7.039063-.910157 0-1.808594.074219-2.667969.222657-6.417969 1.089843-11.757812 5.265625-15.722656 8.761719 1.808594-4.136719 3.675781-8.414063 4.496094-12.945313.914062-5.019531.292968-9.757813-1.753907-13.339844-2.21875-3.878906-6.25-6.382812-10.265625-6.382812-.355468 0-.707031.019531-1.058594.058593-2.367187.273438-4.675781 1.636719-6.179687 3.648438-1.285156 1.710938-1.851563 3.6875-1.601563 5.582031l-.011718.109375-.019532-.101562-.011718-.027344c-1.078125-5.835938-6.277344-10.6875-12.175782-11.320312-.449218-.050782-.90625-.074219-1.363281-.074219-1.890625 0-3.746093.40625-5.460937 1.140625 1.730468-.753906 3.601562-1.171875 5.476562-1.171875.453125 0 .90625.023437 1.355469.070312 3.957031.425781 7.734375 2.78125 10.101563 6.296875l1.6875 2.441406 1.65625-2.480468c.113281-.167969.226562-.335938.339843-.492188 1.53125-2.023437 3.851563-3.386718 6.222657-3.644531.347656-.039063.707031-.0625 1.0625-.0625 4.019531 0 8.050781 2.511719 10.273437 6.394531 2.617187 4.578125 2.402344 9.796875 1.761719 13.363282-.335938 1.84375-.871094 3.792968-1.640625 5.957031l-2.007813 5.664062 5.003906-3.332031c3.367188-2.238281 6.582032-3.59375 9.828126-4.140625.871093-.148437 1.785156-.222656 2.710937-.222656 3.421875 0 6.8125 1.03125 9.296875 2.839843l2.648438 1.925782.503906-3.238282c.285156-1.84375.960937-3.683593 1.953125-5.320312 2.085937-3.445312 5.332031-5.789062 8.90625-6.429688.679687-.121093 1.378906-.183593 2.082031-.183593 2.957031 0 5.976562 1.097656 8.5 3.09375 3.152344 2.5 5.074219 6.011719 5.238281 9.636719-.1875-3.613282-2.105469-7.117188-5.257812-9.613282zm0 0" fill="#fff"/><path d="m202.820312 362.695312-.90625-.746093-1.089843.425781c-6.925781 2.707031-16.097657 6.105469-25.652344 8.398438-9.21875 2.214843-18.78125 3.335937-28.421875 3.335937-37.554688 0-73.75-16.601563-96.820312-44.40625-.300782-.363281-.59375-.734375-.882813-1.101563l-1.3125-1.644531-1.226563.285157c-16.449218 3.804687-30.105468 13.984374-36.527343 27.238281-7.007813 14.484375-4.210938 32.972656 6.503906 43.007812 5.1875 4.855469 12.574219 7.640625 20.269531 7.640625.714844 0 1.441406-.023437 2.15625-.074218 7.59375-.527344 14.121094-3.707032 18.378906-8.957032.378907-.476562.953126-.746094 1.574219-.746094.246094 0 .492188.042969.722657.128907.816406.308593 1.339843 1.105469 1.308593 1.988281-.828125 20.046875 13.777344 39.53125 33.253907 44.363281 3.171874.785157 6.476562 1.183594 9.824218 1.183594 17.023438 0 33.21875-10 40.296875-24.871094.3125-.640625.910157-1.070312 1.59375-1.15625.078125-.011719.160157-.015625.242188-.015625.613281 0 1.195312.277344 1.585937.75 7.328125 9 18.800782 14.371094 30.6875 14.371094 2.976563 0 5.921875-.339844 8.757813-1.019531 14.300781-3.414063 26.019531-15.359375 29.160156-29.726563 3.050781-13.992187-2.363281-29.527344-13.476563-38.652344zm-140.082031 17.308594-2.796875 1.367188c-3.574218 1.75-7.847656 3.585937-12.449218 3.964844-.472657.039062-.960938.058593-1.445313.058593-4.664063 0-10.582031-1.832031-13.195313-6.976562-2.210937-4.335938-1.359374-10.191407 2.171876-14.921875 3.246093-4.339844 8.125-7.273438 12.460937-9.652344-4.515625 2.523438-9.195313 5.347656-12.433594 9.667969-2.890625 3.863281-4.683593 9.96875-2.171875 14.890625 2.609375 5.140625 8.75 6.964844 13.21875 6.964844.476563 0 .941406-.019532 1.402344-.054688 5.773438-.496094 11.207031-3.304688 16.054688-5.777344-.570313 1.234375-.785157 2.59375-.699219 3.96875-.007813-.128906-.03125-.257812-.035157-.386718zm1.238281 7.457032c-.195312-.378907-.363281-.765626-.511718-1.164063.144531.394531.316406.785156.511718 1.164063zm-.648437-1.542969c-.066406-.207031-.128906-.414063-.183594-.625.054688.210937.117188.417969.183594.625zm-.257813-.949219c-.089843-.410156-.15625-.824219-.195312-1.238281.039062.414062.105469.824219.195312 1.238281zm52.679688 19.742188c-1.613281 3.25-4.507812 5.746093-7.75 6.679687-1.089844.316406-2.246094.476563-3.4375.476563-5.472656 0-10.90625-3.28125-13.519531-8.171876-1.882813-3.523437-2.453125-7.824218-1.597657-12.117187l.949219-4.792969-4.039062 2.75c-1.859375 1.269532-3.613281 2.199219-5.359375 2.847656-2.03125.753907-4.09375 1.136719-6.140625 1.136719-2.699219 0-5.195313-.679687-7.222657-1.96875-1.226562-.78125-2.261718-1.851562-3.0625-3.074219.789063 1.191407 1.828126 2.25 3.082032 3.046876 2.019531 1.292968 4.503906 1.976562 7.1875 1.976562 2.039062 0 4.105468-.386719 6.140625-1.148438 4.636719-1.730468 8.480469-5.089843 11.335937-7.8125-3.800781 5.9375-4.292968 13.449219-1.25 19.140626 2.609375 4.886718 8 8.167968 13.417969 8.167968 1.210937 0 2.394531-.164062 3.523437-.488281 3.222657-.933594 6.105469-3.429687 7.714844-6.671875 1.488282-3.007812 1.726563-6.332031.671875-9.136719 1.085938 2.800781.847657 6.136719-.644531 9.160157zm-51.679688-17.054688c.121094.21875.25.4375.386719.648438-.132812-.214844-.265625-.429688-.386719-.648438zm113.144532 18.648438c-2.308594 1.726562-5.25 2.675781-8.285156 2.675781-2.546876 0-4.988282-.664063-7.0625-1.914063-3.082032-1.859375-5.359376-5.035156-6.253907-8.71875l-.910156-3.753906-2.539063 2.910156c-1.101562 1.265625-2.199218 2.238282-3.351562 2.972656-1.59375 1.019532-3.53125 1.605469-5.316406 1.605469-1.539063 0-2.898438-.417969-4.035156-1.25-2.488282-1.8125-3.4375-5.449219-2.3125-8.839843.890624-2.671876 2.957031-5.152344 6.164062-7.34375-3.1875 2.214843-5.25 4.691406-6.140625 7.363281-1.09375 3.3125-.125 7.015625 2.3125 8.804687 1.113281.8125 2.503906 1.238282 4.019531 1.238282 1.769532 0 3.699219-.582032 5.300782-1.605469 2.816406-1.8125 4.726562-4.605469 6.609374-7.308594-.828124 5.28125 1.886719 11.128906 6.464844 13.902344 2.054688 1.238281 4.488282 1.890625 7.042969 1.890625 3.046875 0 5.984375-.941406 8.265625-2.652344 4.285156-3.199219 6.417969-9.28125 5.101562-14.476562 1.375 5.273437-.710937 11.238281-5.074218 14.5zm0 0" fill="#fff"/><g fill="#5fc980"><path d="m452.695312 60.851562-3.0625-1.902343.007813 3.605469c.011719 5.671874-.511719 11.886718-1.554687 18.472656-2.214844 13.902344-5.910157 24.226562-11.640626 32.492187-7.371093 10.640625-18.394531 17.347657-29.488281 17.941407-.484375.027343-.960937.039062-1.441406.039062-7.523437 0-14.894531-3.023438-20.21875-8.292969l-2.3125-2.289062-.996094 3.097656c-2.8125 8.734375-9.644531 16.199219-19.238281 21.027344-7.28125 3.675781-15.4375 5.617187-23.589844 5.617187-6.597656 0-13.152344-1.308594-18.953125-3.78125-13.816406-5.914062-24.164062-18.9375-26.359375-33.183594-1.742187-11.304687 1.96875-23.691406 9.6875-32.324218l2.175782-2.433594-3.160157-.832031c-6.46875-1.703125-12.523437-5.710938-17.054687-11.289063l-.832032-1.019531-1.265624.355469c-6.320313 1.785156-13.0625 2.6875-20.03125 2.6875-16.230469 0-32.210938-4.828125-47.0625-10.046875-5.621094-1.96875-11.273438-4.125-16.261719-6.023438-16.214844-6.164062-32.980469-12.539062-50.347657-14.675781-3.925781-.480469-7.957031-.722656-11.976562-.722656-40.769531 0-80.582031 24.207031-99.066406 60.238281-9.96875 19.445313-13.828125 41.882813-11.160156 64.886719 0 .003906.015624.144531.015624.144531 2.621094 22.578125 11.695313 44.214844 25.546876 60.917969 22.3125 26.886718 57.308593 42.9375 93.609374 42.9375 9.367188 0 18.636719-1.085938 27.554688-3.230469 12.328125-2.960937 24.484375-7.898437 36.238281-12.671875l.097657-.042969c18.792968-7.628906 38.226562-15.519531 58.859374-15.519531h.660157c20.980469.183594 40.523437 8.523438 59.425781 16.589844 12.832031 5.46875 26.101562 11.125 39.683594 14.179687 7.753906 1.738281 15.796875 2.621094 23.902344 2.621094 27.753906 0 55.273437-10.378906 75.5-28.480469 19.699218-17.632812 32.980468-43.183594 36.433593-70.097656.007813-.035156.023438-.179688.023438-.179688 1.101562-8.570312 1.1875-17.199218.257812-25.640624-3.742187-33.960938-23.40625-65.054688-52.605469-83.171876zm-346.714843 30.839844c1.171875-2.023437 2.667969-3.738281 4.40625-5.128906-2.109375 1.710938-3.515625 3.648438-4.386719 5.144531-3.398438 5.867188-3.582031 13.152344-.460938 18.566407 1.015626 1.753906 2.585938 3.671874 4.96875 5.167968-2.0625-1.28125-3.757812-3.011718-4.996093-5.152344-3.128907-5.425781-2.945313-12.722656.46875-18.597656zm11.070312 37.054688c-3.089843-1.277344-6.621093-1.949219-10.519531-1.964844h-.152344c-1.644531 0-3.183594.121094-4.636718.332031 1.515624-.230469 3.078124-.363281 4.679687-.363281h.117187c4.046876.019531 7.539063.746094 10.511719 1.996094zm-13.230469 48.933594h-.109374c-9.816407 0-17.511719-3.953126-21.660157-11.132813-4.480469-7.75-4.222656-18.203125.660157-26.625 1.355468-2.332031 3.015624-4.378906 4.910156-6.132813-2.257813 2.117188-3.839844 4.355469-4.878906 6.148438-4.882813 8.40625-5.144532 18.847656-.664063 26.59375 4.140625 7.167969 11.824219 11.117188 21.632813 11.117188h.105468c17.222656-.054688 26.523438-14.183594 26.535156-27.445313.003907-3.691406-.71875-7.21875-2.078124-10.347656 1.421874 3.238281 2.109374 6.796875 2.109374 10.34375-.019531 13.285156-9.335937 27.433593-26.5625 27.480469zm-2.570312-50.492188c-.382812.0625-.746094.140625-1.113281.214844.371093-.074219.738281-.148438 1.113281-.214844zm-11.519531 4.839844c-.054688.039062-.105469.078125-.160157.117187.054688-.039062.105469-.078125.160157-.117187zm-1.113281.882812c-.214844.179688-.429688.363282-.636719.550782.210937-.1875.421875-.371094.636719-.550782zm28.554687-4.113281c.109375.046875.214844.097656.324219.148437-.109375-.050781-.214844-.101562-.324219-.148437zm9.378906 7.867187c.164063.253907.324219.511719.476563.773438-.152344-.261719-.3125-.519531-.476563-.773438zm.941407 1.601563c.25.464844.488281.933594.703124 1.410156-.214843-.480469-.457031-.949219-.703124-1.410156zm-6.839844-20.195313c-2.5 0-4.800782-.371093-6.859375-1.082031 1.90625.652344 4.164062 1.050781 6.847656 1.050781h.074219c12.023437-.035156 18.523437-9.902343 18.535156-19.171874 0-8.097657-5.140625-16.296876-16.628906-16.347657h-.113282c-2.390624 0-4.480468.351563-6.308593.929688 1.964843-.632813 4.082031-.960938 6.308593-.960938h.121094c12.304688.058594 16.660156 8.863281 16.652344 16.386719-.007812 9.28125-6.519531 19.160156-18.628906 19.195312zm-10.066406-2.578124c.1875.117187.390624.222656.589843.335937-.199219-.109375-.398437-.21875-.589843-.335937zm.984374.554687c.136719.070313.28125.132813.421876.199219-.140626-.066406-.285157-.128906-.421876-.199219zm1.199219.554687c.285157.117188.574219.234376.878907.34375-.300782-.109374-.589844-.226562-.878907-.34375zm-2.339843-30.074218c.246093-.195313.496093-.382813.75-.566406-.257813.1875-.511719.375-.75.566406zm1.136718-.835938c.164063-.109375.328125-.214844.496094-.320312-.167969.105468-.335938.210937-.496094.320312zm1.160156-.71875c.097657-.054687.195313-.109375.292969-.164062-.097656.054687-.199219.109375-.292969.164062zm1.144532-.601562c.066406-.03125.128906-.058594.195312-.089844-.0625.03125-.132812.058594-.195312.089844zm1.148437-.5c.085938-.035156.175781-.0625.261719-.09375-.085938.03125-.175781.058594-.261719.09375zm33.742188 59.078125c-5.21875 0-9.304688-2.097657-11.5-5.910157-2.382813-4.128906-2.246094-9.675781.351562-14.136718 2.578125-4.449219 7.160157-7.003906 12.566407-7.003906h.09375c9.347656.046874 12.65625 6.738281 12.648437 12.460937 0 7.054687-4.945313 14.5625-14.160156 14.589844zm262.089843 38.511719c1.765626-.636719 3.660157-.960938 5.640626-.960938 4.488281 0 9.078124 1.703125 12.597656 4.675781 2.082031 1.761719 3.679687 3.878907 4.773437 6.230469-1.367187-2.894531-3.300781-4.9375-4.800781-6.203125-3.511719-2.972656-8.082031-4.679687-12.539062-4.679687-1.976563 0-3.875.324218-5.65625.964843-1.851563.671875-3.949219 1.839844-5.796876 3.820313 1.59375-1.722656 3.53125-3.03125 5.78125-3.847656zm-13.367187 43.078124c-1.203125 6.582032-5.652344 10.511719-11.902344 10.511719-.847656 0-1.714843-.078125-2.578125-.230469-6.945312-1.242187-13.46875-7.425781-11.882812-16.445312.898437-5.160156 3.683594-8.828125 7.839844-10.335938 1.34375-.484374 2.785156-.730468 4.292968-.730468 3.414063 0 6.898438 1.292968 9.566406 3.546875 1.84375 1.5625 3.191407 3.488281 4.011719 5.636719-1.035156-2.675782-2.742187-4.515626-4.027343-5.609376-2.660157-2.25-6.15625-3.542968-9.59375-3.542968-1.476563 0-2.902344.242187-4.242188.722656-4.203125 1.527344-6.90625 5.097656-7.816406 10.320312-1.585938 8.996094 4.933594 15.164063 11.863281 16.40625.835937.148438 1.683594.226563 2.523437.226563 6.257813 0 10.714844-3.914063 11.917969-10.476563.414063-2.246093.347657-4.21875-.003906-5.925781.386719 1.875.410156 3.871094.03125 5.925781zm-.585937-7.871093c.078124.21875.152343.4375.21875.660156-.070313-.222656-.140626-.445313-.21875-.660156zm.316406.980469c.058594.210937.113281.425781.160156.640624-.046875-.21875-.101562-.433593-.160156-.640624zm3.316406-22.574219c.355469-2.042969.945312-3.90625 1.730469-5.574219-.730469 1.570312-1.320313 3.410156-1.699219 5.574219-.453125 2.582031-.398438 4.984375.054688 7.183593-.261719-1.222656-.40625-2.4375-.40625-3.621093 0-1.167969.105468-2.363281.320312-3.5625zm4.269531-9.476563c-.078125.085938-.152343.183594-.230469.273438.078126-.089844.148438-.183594.230469-.273438zm-1.742187 2.414063c-.0625.105469-.128906.203125-.1875.308593.058594-.105468.125-.203124.1875-.308593zm-.316406.550781c-.160157.296875-.316407.597656-.46875.914062.148437-.3125.308593-.617187.46875-.914062zm32.492187 14.613281c-1.589844 8.664063-7.453125 13.832031-15.683594 13.832031-1.136719 0-2.269531-.097656-3.367187-.296874-7.03125-1.257813-11.597656-5.316407-13.980469-9.992188 2.816406 5.398438 8.292969 8.941406 13.984375 9.960938 1.097656.195312 2.214844.296874 3.320312.296874 8.246094 0 14.113282-5.160156 15.6875-13.796874.4375-2.394532.464844-4.546876.21875-6.472657.277344 2.074219.226563 4.246094-.179687 6.46875zm-34.605469-.859375c.058594.273438.125.542969.195313.808594-.074219-.269531-.132813-.539062-.195313-.808594zm.507813 1.878906c.03125.089844.066406.175782.097656.265626-.03125-.089844-.066406-.175782-.097656-.265626zm.480469 1.257813c.046874.117187.09375.238281.148437.351563-.054687-.117188-.101563-.234376-.148437-.351563zm32.382812-13.75c.101562.226563.195312.453125.289062.683594-.09375-.230469-.1875-.460938-.289062-.683594zm.515625 1.28125c.054687.160156.109375.316406.160156.472656-.054687-.15625-.105469-.316406-.160156-.472656zm.394531 1.246094c.039063.140625.070313.28125.105469.425781-.035156-.144531-.066406-.289062-.105469-.425781zm.292969 1.230469c.054687.265624.097656.539062.140625.808593-.042969-.273437-.085938-.542969-.140625-.808593zm0 0"/><path d="m471.285156 242.96875c-20.949218 18.753906-49.46875 29.511719-78.246094 29.511719-8.378906 0-16.703124-.914063-24.742187-2.722657-13.882813-3.105468-27.277344-8.816406-40.230469-14.339843l-.175781-.074219c-19.394531-8.269531-37.71875-16.082031-57.871094-16.246094l-.628906-.007812c-19.824219 0-38.042969 7.398437-57.410156 15.265625-11.898438 4.835937-24.203125 9.832031-36.808594 12.859375-9.175781 2.203125-18.738281 3.324218-28.421875 3.332031-37.554688 0-73.75-16.597656-96.820312-44.40625-7.113282-8.570313-13.011719-18.371094-17.535157-29.128906l-3.8125 1.125c.96875 5.480469 2.324219 10.914062 4.027344 16.148437 4.535156 13.996094 11.414063 26.617188 20.441406 37.511719 22.316407 26.886719 57.3125 42.9375 93.613281 42.9375 9.363282 0 18.636719-1.085937 27.554688-3.230469 12.332031-2.960937 24.484375-7.898437 36.261719-12.683594 18.8125-7.640624 38.269531-15.539062 58.929687-15.539062h.664063c20.933593.175781 40.476562 8.503906 59.421875 16.578125 12.832031 5.46875 26.097656 11.125 39.6875 14.183594 7.757812 1.742187 15.800781 2.625 23.910156 2.625 27.746094 0 55.261719-10.382813 75.488281-28.488281 18.714844-16.738282 31.410157-39.960938 35.75-65.394532l-3.8125-1.117187c-6.757812 15.953125-16.863281 30.234375-29.234375 41.300781zm0 0"/><path d="m150.179688 115.941406c-7.386719 0-11.027344 4.371094-12.539063 6.972656-2.546875 4.386719-2.6875 10.054688-.351563 14.105469 2.226563 3.859375 6.191407 5.898438 11.472657 5.898438h.054687c9.144532-.019531 14.074219-7.515625 14.074219-14.554688.011719-6.160156-3.882813-12.390625-12.710937-12.421875zm0 0"/></g><path d="m502.824219 233.691406-1.367188-5.554687-2.394531 5.195312c-6.679688 14.503907-16.285156 27.605469-27.777344 37.878907-20.949218 18.753906-49.46875 29.507812-78.246094 29.507812-8.40625 0-16.730468-.910156-24.738281-2.710938-13.933593-3.128906-27.375-8.855468-40.410156-14.414062-19.394531-8.269531-37.71875-16.082031-57.871094-16.253906h-.628906c-19.847656 0-38.09375 7.410156-57.414063 15.257812-11.898437 4.835938-24.199218 9.832032-36.804687 12.859375-9.21875 2.210938-18.78125 3.332031-28.421875 3.332031-37.5625 0-73.753906-16.59375-96.820312-44.394531-6.945313-8.378906-12.703126-17.804687-17.113282-28.015625l-2.414062-5.601562-1.371094 5.945312c-7.9375 34.492188 1.269531 72.960938 24.03125 100.394532 22.296875 26.878906 57.292969 42.933593 93.617188 42.945312 9.347656 0 18.609374-1.089844 27.539062-3.238281 12.332031-2.957031 24.472656-7.894531 36.226562-12.675781 18.839844-7.644532 38.320313-15.550782 59.03125-15.550782l.609376.003906c20.917968.167969 40.460937 8.5 59.410156 16.578126 12.832031 5.472656 26.101562 11.128906 39.695312 14.183593 7.753906 1.738281 15.792969 2.621094 23.894532 2.621094 27.746093 0 55.265624-10.382813 75.496093-28.484375 26.546875-23.746094 40.617188-60.5 36.714844-95.917969-.5-4.578125-1.335937-9.25-2.472656-13.890625zm-381.191407 112.5c-5.554687-1-10.777343-5.953125-9.511718-13.167968.722656-4.136719 2.953125-7.078126 6.28125-8.285157 1.070312-.386719 2.222656-.585937 3.429687-.585937 2.730469 0 5.519531 1.039062 7.660157 2.84375 1.277343 1.082031 2.246093 2.386718 2.914062 3.832031-.835938-1.773437-2.019531-3.027344-2.933594-3.804687-2.128906-1.800782-4.921875-2.835938-7.660156-2.835938-1.203125 0-2.351562.195312-3.402344.582031-3.316406 1.199219-5.539062 4.132813-6.257812 8.253907-1.265625 7.203124 3.949218 12.144531 9.496094 13.132812.691406.125 1.386718.1875 2.070312.1875 2.121094 0 3.984375-.578125 5.496094-1.644531-1.40625 1.03125-3.191406 1.6875-5.40625 1.6875-.667969.003906-1.40625-.066407-2.175782-.195313zm11.601563-8.234375c-.152344.832031-.414063 1.691407-.773437 2.53125.320312-.78125.570312-1.625.738281-2.539062.242187-1.335938.269531-2.542969.15625-3.636719.128906 1.175781.105469 2.394531-.121094 3.644531zm-.957031 2.960938s0 0 0-.003907zm.46875-9.277344c.058594.164063.113281.332031.167968.5-.054687-.167969-.109374-.335937-.167968-.5zm.4375 1.507813c.035156.175781.0625.355468.089844.53125-.027344-.179688-.054688-.359376-.089844-.53125zm18.730468-7.289063c-.589843 3.191406-2.386718 4.589844-3.996093 5.195313 2.058593-.78125 3.488281-2.605469 3.960937-5.203126.75-4.109374-1.507812-6.511718-2.507812-7.347656-1.429688-1.210937-3.300782-1.902344-5.140625-1.902344-.839844 0-1.621094.132813-2.289063.386719-2.230468.808594-3.726562 2.777344-4.210937 5.546875-.851563 4.828125 2.648437 8.152344 6.382812 8.835938.449219.078125.914063.117187 1.375.117187.417969 0 .820313-.03125 1.207031-.09375-.519531.089844-.964843.117188-1.253906.117188-.457031 0-.902344-.042969-1.339844-.121094-3.144531-.5625-6.53125-3.105469-6.53125-7.359375 0-.5.042969-1.003906.132813-1.5.339844-1.96875 1.347656-4.535156 4.214844-5.570312.726562-.257813 1.503906-.390626 2.316406-.390626 1.839844 0 3.71875.691407 5.152344 1.90625 2.164062 1.832032 3.058593 4.453126 2.527343 7.382813zm-4.203124 5.269531c-.351563.121094-.691407.203125-1.007813.261719.351563-.058594.6875-.152344 1.007813-.261719zm190.539062.839844c-.804688 1.835938-2.394531 4.09375-5.457031 4.429688-.222657.027343-.449219.03125-.671875.03125-2.351563 0-4.722656-1.253907-6.199219-3.273438-1.644531-2.246094-1.902344-5.074219-.714844-7.753906 1.617188-3.640625 4.40625-4.183594 5.925781-4.183594.996094 0 2.023438.21875 2.964844.632812 3.476563 1.527344 6.113282 5.59375 4.152344 10.117188zm27.328125-4.191406c-1.683594 3.851562-4.546875 6.1875-8.027344 6.582031-.355469.035156-.714843.0625-1.082031.0625-3.480469 0-7.011719-1.863281-9.203125-4.863281-2.445313-3.34375-2.828125-7.546875-1.058594-11.535156.265625-.597657.597657-1.199219.992188-1.785157-.34375.535157-.667969 1.132813-.96875 1.800781-2.5 5.65625-.085938 9.929688 1.066406 11.503907 2.195313 2.988281 5.710937 4.84375 9.183594 4.84375.347656 0 .695312-.019531 1.039062-.058594 3.507813-.386719 6.355469-2.71875 8.023438-6.558594 2.917969-6.695312-.992188-12.71875-6.144531-14.988281-1.4375-.632812-2.96875-.96875-4.429688-.96875-.832031 0-1.925781.113281-3.097656.539062.957031-.371093 2.007812-.59375 3.15625-.59375 1.410156 0 2.882812.335938 4.378906.996094 5.171875 2.269532 9.09375 8.308594 6.171875 15.023438zm0 0" fill="#ffda8e"/><path d="m334.085938 321.878906c-.675782-.296875-1.742188-.648437-2.996094-.648437-1.492188 0-4.238282.542969-5.847656 4.183593-1.699219 3.816407-.070313 6.679688.707031 7.730469 1.472656 2.011719 3.839843 3.261719 6.175781 3.261719.234375 0 .464844-.011719.695312-.039062 2.359376-.257813 4.277344-1.828126 5.394532-4.410157 1.957031-4.507812-.664063-8.554687-4.128906-10.078125zm0 0" fill="#ffda8e"/><path d="m511.324219 171.578125-.015625-.105469c-.058594-.519531-.125-1.042968-.195313-1.5625 1.101563-8.890625 1.175781-17.820312.210938-26.550781-4.109375-37.324219-27.023438-71.90625-59.796875-90.25-.132813-.074219-.273438-.121094-.410156-.179687-.359376-3.1875-.898438-6.261719-1.625-9.222657-3.378907-13.734375-10.863282-25.117187-21.078126-32.058593-15.351562-10.4375-35.617187-9.097657-47.136718 3.109374l-.925782.988282c-1.417968 1.507812-3.003906 3.195312-3.769531 3.699218-1.101562-.503906-3.757812-2.8125-4.941406-3.839843-7.570313-6.585938-15.066406-10.71875-23.59375-13.007813-17.332031-4.65625-34.972656-2.996094-48.40625 4.550782-15.617187 8.773437-25.296875 26.246093-23.53125 42.488281.433594 3.992187 1.597656 7.796875 3.292969 11.304687-18.871094 4.574219-38.203125.167969-61.09375-7.867187-5.375-1.886719-10.832032-3.960938-16.113282-5.96875-16.570312-6.300781-33.703124-12.8125-51.765624-15.027344-22.613282-2.769531-46.800782 2.015625-68.101563 13.480469-21.1875 11.402344-38.617187 28.90625-49.070313 49.285156-10.453124 20.390625-14.539062 43.867188-11.832031 67.925781-1.957031 17.144531-.277343 34.914063 4.84375 51.554688-12.058593 35.378906-5.9375 76.480469 15.519531 107.875-16.722656 4.769531-30.496093 15.65625-37.261718 29.636719-8.253906 17.050781-4.96875 38.109374 7.8125 50.074218 6.886718 6.441406 16.960937 9.878906 26.984375 9.183594 5.976562-.410156 11.4375-2.199219 15.988281-5.164062 2.933594 19.519531 18.050781 36.992187 37.378906 41.785156 3.664063.90625 7.402344 1.339844 11.140625 1.339844 16.980469 0 33.902344-8.964844 43.109375-23.277344 10.929688 10.21875 26.96875 14.679687 41.597656 11.1875 16.515626-3.941406 30.046876-17.738282 33.675782-34.328125 3.246094-14.855469-1.667969-30.984375-12.332032-41.71875.949219-.382813 1.894532-.765625 2.835938-1.148438 19.335938-7.855469 37.582031-15.316406 57.3125-15.113281 19.726562.164062 37.875 7.902344 57.085938 16.09375 13.09375 5.582031 26.628906 11.355469 40.746093 14.523438 8.273438 1.859374 16.722657 2.761718 25.175781 2.761718 28.96875 0 57.925782-10.636718 79.585938-30.019531 27.984375-25.039063 42.8125-63.777344 38.699219-101.101563-.859375-7.792968-2.5625-15.59375-5.058594-23.1875-.15625-.480468-.40625-.90625-.710937-1.277343 5.542968-16.273438 7.65625-33.714844 5.769531-50.871094zm-44.078125 95.117187c-26.070313 23.328126-63.476563 33.058594-97.621094 25.394532-13.394531-3.003906-26.585938-8.628906-39.34375-14.066406-19.09375-8.144532-38.84375-16.566407-60.1875-16.746094-.226562 0-.453125 0-.679688 0-21.058593 0-40.707031 7.980468-59.714843 15.703125-11.6875 4.75-23.777344 9.664062-35.945313 12.582031-43.265625 10.394531-91.148437-5.292969-119.160156-39.042969-8.867188-10.691406-15.625-23.089843-20.085938-36.851562-1.683593-5.1875-3.003906-10.5-3.960937-15.875 4.554687 10.816406 10.574219 20.867187 17.847656 29.628906 23.773438 28.648437 60.925781 45.125 98.355469 45.121094 9.683594 0 19.394531-1.101563 28.886719-3.386719 12.761719-3.058594 25.132812-8.089844 37.101562-12.949219 19.121094-7.769531 37.191407-15.113281 56.660157-15.113281h.628906c19.730468.167969 37.882812 7.90625 57.09375 16.097656 13.089844 5.582032 26.625 11.351563 40.738281 14.519532 8.277344 1.859374 16.730469 2.765624 25.183594 2.765624 28.972656 0 57.925781-10.640624 79.582031-30.019531 12.742188-11.394531 22.925781-25.929687 29.742188-42.003906-4.183594 24.5-16.535157 47.613281-35.121094 64.242187zm-163.65625-252.519531c11.613281-6.523437 27.054687-7.90625 42.367187-3.792969 7.300781 1.960938 13.78125 5.554688 20.394531 11.304688 4.300782 3.738281 7.105469 6.027344 10.59375 5.886719 3.488282-.140625 5.792969-2.59375 9.28125-6.3125l.914063-.96875c10.066406-10.664063 26.441406-8.976563 36.742187-1.976563 8.5625 5.820313 14.875 15.519532 17.78125 27.316406 2.414063 9.816407 2.554688 21.082032.433594 34.441407-2.058594 12.960937-5.4375 22.492187-10.632812 29.992187-6.308594 9.109375-15.59375 14.839844-24.835938 15.335938-9.828125.53125-19.640625-5.964844-21.808594-14.480469-.539062-2.117187-2.667968-3.425781-4.808593-2.929687-2.132813.488281-3.488281 2.589843-3.046875 4.734374 2.238281 10.9375-6.828125 21.8125-16.941406 26.90625-11.878907 5.984376-25.875 6.609376-37.433594 1.667969-11.9375-5.105469-20.867188-16.304687-22.75-28.527343-1.9375-12.585938 3.910156-25.945313 14.214844-32.488282 1.574218-1.003906 2.257812-2.953125 1.648437-4.714844-.566406-1.640624-2.105469-2.71875-3.808594-2.71875-.132812 0-.261719.003907-.394531.015626-12.8125 1.257812-25.867188-10.234376-27.375-24.101563-1.425781-13.125 6.578125-27.347656 19.464844-34.589844zm-263.160156 84.347657c20.085937-39.140626 65.933593-63.71875 109.023437-58.441407 17.089844 2.09375 33.757813 8.429688 49.878906 14.558594 5.324219 2.023437 10.832031 4.117187 16.304688 6.042969 20.4375 7.171875 44.195312 14.199218 68.304687 7.394531 4.71875 5.808594 11.105469 10.125 18.097656 11.964844-7.996093 8.945312-12.046874 21.757812-10.167968 33.957031 2.292968 14.914062 13.109375 28.539062 27.550781 34.714844 6.171875 2.640625 12.914063 3.949218 19.738281 3.949218 8.339844 0 16.800782-1.957031 24.492188-5.828124 11.207031-5.644532 17.605468-14.035157 20.242187-22.207032 5.847657 5.789063 14.394531 9.292969 23.164063 8.828125 11.714844-.628906 23.316406-7.65625 31.03125-18.796875 5.910156-8.535156 9.714844-19.121094 11.972656-33.316406 1.0625-6.703125 1.585938-12.941406 1.582031-18.792969 28.359375 17.597657 48.007813 48.472657 51.667969 81.691407.910156 8.269531.824219 16.742187-.257812 25.171874-.003907.042969-.007813.089844-.011719.132813-3.394531 26.476563-16.4375 51.585937-35.796875 68.902344-26.070313 23.332031-63.476563 33.0625-97.621094 25.398437-13.394531-3.007812-26.585938-8.628906-39.34375-14.070312-19.09375-8.140625-38.84375-16.5625-60.1875-16.742188-.226562 0-.453125-.003906-.679688-.003906-21.058593 0-40.707031 7.984375-59.714843 15.707031-11.6875 4.75-23.777344 9.660157-35.945313 12.582031-43.265625 10.394532-91.148437-5.292968-119.160156-39.042968-13.605469-16.402344-22.515625-37.660156-25.101562-59.871094-.003907-.035156-.007813-.066406-.007813-.097656-2.628906-22.628906 1.15625-44.6875 10.945313-63.785156zm173.90625 302.394531c-2.976563 13.632812-14.097657 24.96875-27.667969 28.207031-13.574219 3.238281-28.617188-1.847656-37.429688-12.664062-.871093-1.074219-2.226562-1.625-3.605469-1.457032-1.371093.164063-2.5625 1.023438-3.15625 2.269532-8.238281 17.292968-29.253906 27.222656-47.84375 22.617187-18.589843-4.605469-32.535156-23.207031-31.742187-42.34375.070313-1.734375-.976563-3.324219-2.601563-3.9375-1.628906-.613281-3.464843-.117187-4.558593 1.234375-3.894531 4.808594-9.917969 7.726562-16.960938 8.210938-7.8125.542968-15.636719-2.085938-20.917969-7.027344-10.105468-9.460938-12.714843-26.945313-6.066406-40.675782 6.160156-12.730468 19.304688-22.492187 35.175782-26.15625.476562.597657.945312 1.199219 1.433593 1.789063 23.765625 28.648437 60.921875 45.125 98.359375 45.121094 9.683594 0 19.390625-1.101563 28.882813-3.382813 8.824219-2.117187 17.460937-5.183594 25.910156-8.480468 10.578125 8.675781 15.714844 23.300781 12.789063 36.675781zm288.972656-153.117188c3.835937 34.78125-9.984375 70.878907-36.058594 94.207031-26.074219 23.332032-63.484375 33.066407-97.621094 25.402344-13.398437-3.003906-26.589844-8.632812-39.347656-14.070312-19.09375-8.144532-38.839844-16.566406-60.183594-16.742188-21.339844-.15625-41.195312 7.898438-60.410156 15.707032-11.6875 4.746093-23.769531 9.65625-35.933594 12.578124-8.902344 2.140626-17.996094 3.171876-27.078125 3.171876-35.054687 0-69.839843-15.417969-92.078125-42.21875-22.644531-27.300782-31.382812-64.910157-23.609375-98.667969 4.484375 10.402343 10.3125 19.957031 17.402344 28.5 23.773437 28.648437 60.929687 45.121093 98.359375 45.121093 9.683594 0 19.394531-1.105468 28.886719-3.386718 12.757812-3.0625 25.132812-8.089844 37.097656-12.953125 19.125-7.769531 37.195313-15.113281 56.660156-15.113281.210938 0 .421875.003906.632813.003906 19.730468.167968 37.878906 7.90625 57.09375 16.097656 13.089844 5.582031 26.625 11.351562 40.738281 14.519531 8.277344 1.859375 16.730469 2.761719 25.183594 2.761719 28.972656 0 57.925781-10.636719 79.582031-30.015625 11.988281-10.726563 21.550781-23.96875 28.257812-38.535156 1.109376 4.515625 1.921876 9.078125 2.425782 13.632812zm0 0"/><path d="m120.648438 120.066406h.078124c13.332032-.035156 20.539063-10.945312 20.550782-21.191406.011718-9.105469-5.75-18.324219-18.640625-18.386719-.042969 0-.082031 0-.121094 0-7.851563 0-14.503906 3.710938-18.269531 10.199219-3.765625 6.484375-3.949219 14.574219-.464844 20.601562 3.269531 5.664063 9.257812 8.777344 16.867188 8.777344zm-12.914063-27.355468c1.777344-3.066407 6.058594-8.191407 14.773437-8.191407h.109376c10.808593.050781 14.636718 7.761719 14.628906 14.351563-.007813 8.296875-5.804688 17.132812-16.53125 17.164062-.023438 0-.046875 0-.070313 0-7.820312 0-11.589843-3.675781-13.371093-6.761718-2.773438-4.800782-2.59375-11.300782.460937-16.5625zm0 0"/><path d="m103.710938 179.675781h.109374c18.53125-.050781 28.546876-15.222656 28.558594-29.472656.015625-12.609375-7.964844-25.367187-25.824218-25.453125-11.03125-.039062-20.3125 5.109375-25.570313 14.167969-5.238281 9.023437-5.5 20.257812-.664063 28.625 4.519532 7.828125 12.824219 12.132812 23.390626 12.132812zm-19.242188-38.734375c2.644531-4.546875 8.996094-12.160156 21.90625-12.160156h.160156c16.117188.078125 21.824219 11.585938 21.8125 21.417969-.011718 12.304687-8.617187 25.40625-24.539062 25.449219-.03125 0-.0625 0-.09375 0-9.070313 0-16.136719-3.59375-19.90625-10.121094-4.125-7.136719-3.863282-16.789063.660156-24.585938zm0 0"/><path d="m135.882812 121.894531c-2.949218 5.078125-3.085937 11.414063-.355468 16.140625 2.578125 4.460938 7.273437 6.914063 13.234375 6.914063h.0625c10.445312-.027344 16.09375-8.566407 16.101562-16.585938.003907-7.160156-4.519531-14.410156-14.648437-14.457031-.03125 0-.0625 0-.09375 0-6.144532 0-11.351563 2.90625-14.300782 7.988281zm14.292969-3.957031h.082031c7.859376.035156 10.640626 5.636719 10.636719 10.417969-.007812 6.074219-4.242187 12.539062-12.082031 12.5625-.019531 0-.035156 0-.050781 0-4.523438 0-7.890625-1.691407-9.742188-4.898438-1.992187-3.445312-1.851562-8.308593.351563-12.101562 1.296875-2.238281 4.425781-5.980469 10.804687-5.980469zm0 0"/><path d="m415.828125 218.675781c1.226563.21875 2.472656.332031 3.71875.332031 7.859375 0 15.648437-4.519531 17.652344-15.464843 1.421875-7.773438-1.066407-15.023438-6.820313-19.890625-5.726562-4.84375-13.65625-6.441406-20.203125-4.070313-6.167969 2.238281-10.292969 7.617188-11.609375 15.144531-2.300781 13.136719 7.175782 22.144532 17.261719 23.949219zm-13.292969-23.253906c1.355469-7.75 5.652344-10.828125 9.011719-12.046875 5.210937-1.886719 11.582031-.574219 16.226563 3.355469 2.714843 2.296875 7.039062 7.441406 5.457031 16.085937-1.945313 10.632813-10.207031 13.050782-16.691407 11.890625-8.167968-1.460937-15.855468-8.71875-14.003906-19.285156zm0 0"/><path d="m130.785156 325.472656c-3.699218-3.125-8.824218-4.152344-13.070312-2.613281-4.027344 1.460937-6.714844 4.945313-7.570313 9.816406-1.484375 8.492188 4.628907 14.316407 11.140625 15.480469.878906.15625 1.71875.230469 2.519532.230469 6.539062 0 10.453124-4.949219 11.394531-10.070313.917969-5.015625-.691407-9.695312-4.414063-12.84375zm.449219 12.117188c-1.078125 5.890625-5.480469 7.269531-9.238281 6.597656-4.59375-.820312-8.917969-4.890625-7.878906-10.816406.601562-3.433594 2.320312-5.757813 4.972656-6.722656.851562-.308594 1.773437-.457032 2.71875-.457032 2.222656 0 4.566406.832032 6.371094 2.359375 1.523437 1.289063 3.945312 4.175781 3.054687 9.039063zm0 0"/><path d="m150.6875 316.953125c-2.664062-2.253906-6.371094-2.988281-9.441406-1.875-2.945313 1.066406-4.902344 3.589844-5.519532 7.109375-1.074218 6.132812 3.335938 10.335938 8.027344 11.175781.550782.101563 1.113282.152344 1.683594.152344 3.675781 0 7.5-2.136719 8.441406-7.300781.660156-3.613282-.503906-6.988282-3.191406-9.261719zm-.773438 8.535156c-.800781 4.386719-4.371093 4.101563-5.453124 3.910157-2.300782-.414063-5.46875-2.488282-4.765626-6.515626.363282-2.0625 1.375-3.453124 2.921876-4.015624.503906-.183594 1.050781-.273438 1.613281-.273438 1.339843 0 2.753906.507812 3.851562 1.4375.914063.773438 2.371094 2.511719 1.832031 5.457031zm0 0"/><path d="m360.214844 310.917969c-7.492188-3.292969-13.460938.953125-15.835938 6.296875-2.066406 4.65625-1.601562 9.585937 1.277344 13.519531 2.589844 3.539063 6.726562 5.679687 10.820312 5.679687.421876 0 .84375-.023437 1.265626-.070312 4.261718-.472656 7.691406-3.230469 9.667968-7.761719 3.4375-7.90625-1.140625-15.003906-7.195312-17.664062zm3.496094 16.054687c-1.390626 3.199219-3.609376 5.054688-6.414063 5.367188-3.046875.339844-6.398437-1.265625-8.386719-3.984375-1.179687-1.609375-2.855468-4.984375-.84375-9.503907 1.644532-3.707031 4.285156-5.042968 6.90625-5.042968 1.246094 0 2.492188.304687 3.621094.800781 4.269531 1.875 7.515625 6.847656 5.117188 12.363281zm0 0"/><path d="m334.902344 320.019531c-3.828125-1.683593-9.0625-.96875-11.523438 4.570313-1.488281 3.355468-1.148437 6.910156.929688 9.753906 1.867187 2.550781 4.855468 4.089844 7.816406 4.089844.308594 0 .617188-.015625.921875-.050782 3.109375-.34375 5.609375-2.339843 7.03125-5.613281 2.484375-5.710937-.8125-10.832031-5.175781-12.75zm1.480468 11.140625c-.835937 1.921875-2.144531 3.035156-3.78125 3.214844-1.804687.203125-3.832031-.765625-5.039062-2.410156-.707031-.96875-1.710938-3-.496094-5.738282 1.0625-2.394531 2.675782-2.996093 4.027344-2.996093.953125 0 1.773438.296875 2.1875.480469 2.140625.9375 4.730469 3.699218 3.101562 7.449218zm0 0"/><path d="m382.65625 236.792969c.964844.171875 1.945312.261719 2.925781.261719 6.179688 0 12.300781-3.550782 13.875-12.152344 1.109375-6.082032-.835937-11.757813-5.347656-15.570313-4.480469-3.789062-10.695313-5.039062-15.828125-3.175781-4.859375 1.757812-8.101562 5.976562-9.132812 11.875-1.804688 10.292969 5.613281 17.347656 13.507812 18.761719zm-9.539062-18.0625c.785156-4.484375 3.042968-7.519531 6.535156-8.785157 1.117187-.40625 2.328125-.601562 3.5625-.601562 2.898437 0 5.945312 1.078125 8.292968 3.066406 1.984376 1.675782 5.140626 5.4375 3.980469 11.765625-1.414062 7.730469-7.410156 9.492188-12.121093 8.648438-5.980469-1.070313-11.605469-6.375-10.25-14.09375zm0 0"/><path d="m319.558594 65.839844c.890625.667968 2.152344.484375 2.820312-.410156.664063-.890626.484375-2.152344-.410156-2.820313-4.144531-3.09375-5.84375-9.0625-3.953125-13.875 1.894531-4.816406 7.214844-8.03125 12.34375-7.476563 5.117187.550782 9.597656 4.777344 10.453125 9.851563.003906.03125.011719.066406.015625.097656.1875 1.09375 1.214844 1.828125 2.320313 1.648438 1.09375-.183594 1.835937-1.214844 1.65625-2.308594-.003907-.027344-.007813-.058594-.015626-.085937-.21875-1.40625.210938-2.910157 1.207032-4.234376 1.191406-1.582031 2.988281-2.652343 4.8125-2.855468 3.496094-.398438 7.335937 1.800781 9.351562 5.332031 1.808594 3.164063 2.347656 7.421875 1.523438 11.988281-.78125 4.300782-2.601563 8.46875-4.363282 12.5-.378906.871094-.101562 1.886719.667969 2.441406.351563.253907.765625.378907 1.179688.378907.484375 0 .964843-.171875 1.34375-.511719 3.726562-3.335938 8.761719-7.289062 14.695312-8.300781 4.765625-.808594 11.089844.921875 13.414063 5.722656.457031.949219 1.574218 1.386719 2.554687.996094.984375-.386719 1.496094-1.46875 1.183594-2.476563-.914063-2.910156-.414063-6.265625 1.363281-9.207031 1.78125-2.941406 4.523438-4.941406 7.523438-5.480469 3-.542968 6.269531.371094 8.964844 2.507813 2.695312 2.132812 4.335937 5.105469 4.496093 8.148437.0625 1.113282 1.027344 1.976563 2.121094 1.90625 1.113281-.058594 1.964844-1.007812 1.90625-2.117187-.222656-4.203125-2.417969-8.246094-6.019531-11.097657-3.605469-2.855468-8.046875-4.058593-12.183594-3.316406-4.136719.746094-7.875 3.429688-10.253906 7.363282-1.160156 1.914062-1.90625 3.976562-2.222656 6.054687-3.882813-2.820313-9.125-3.722656-13.519532-2.976563-3.980468.675782-7.527344 2.40625-10.605468 4.453126.71875-2.027344 1.328124-4.109376 1.71875-6.273438.707031-3.886719.929687-9.59375-1.988282-14.703125-2.835937-4.964844-8.183594-7.910156-13.300781-7.339844-2.90625.328125-5.742187 1.988281-7.585937 4.4375-.152344.203125-.292969.40625-.429688.617188-2.609375-3.875-6.882812-6.664063-11.554688-7.167969-6.878906-.75-13.988281 3.5625-16.523437 10.011719-2.535156 6.445312-.257813 14.433593 5.292969 18.578125zm0 0"/><path d="m347.078125 93.210938c-4.382813 1.90625-7.210937 6.386718-7.53125 11.039062-2.515625-1.378906-5.363281-2.011719-8.117187-1.722656-4.972657.515625-9.292969 4.09375-10.5 8.699218-1.304688 4.980469 1.382812 10.511719 5.988281 12.335938.246093.097656.496093.140625.742187.140625.800782 0 1.5625-.480469 1.875-1.273437.410156-1.035157-.097656-2.203126-1.132812-2.613282-2.730469-1.082031-4.367188-4.546875-3.574219-7.566406.78125-2.96875 3.734375-5.371094 7.019531-5.714844 3.210938-.335937 6.640625 1.132813 8.933594 3.835938.648438.757812 1.75.933594 2.597656.40625.847656-.523438 1.183594-1.589844.792969-2.503906-1.742187-4.074219.449219-9.597657 4.511719-11.367188s9.601562.390625 11.394531 4.441406c.449219 1.019532 1.640625 1.476563 2.660156 1.027344 1.015625-.449219 1.476563-1.640625 1.023438-2.660156-2.71875-6.148438-10.519531-9.1875-16.683594-6.503906zm0 0"/><path d="m115.652344 393.679688c-1.035156.402343-1.554688 1.570312-1.152344 2.609374.878906 2.273438.671875 5.011719-.570312 7.511719-1.367188 2.753907-3.792969 4.863281-6.484376 5.636719-5.363281 1.542969-11.78125-1.398438-14.613281-6.695312-2.710937-5.070313-2.253906-11.789063 1.164063-17.121094.550781-.859375.371094-2-.421875-2.644532-.789063-.648437-1.941407-.601562-2.675781.109376-2.695313 2.601562-6.332032 5.796874-10.617188 7.394531-4.167969 1.554687-8.488281 1.316406-11.554688-.636719-3.242187-2.066406-4.777343-6.398438-3.359374-9.46875.359374-.78125.183593-1.707031-.4375-2.300781-.621094-.59375-1.554688-.730469-2.320313-.335938-4.636719 2.402344-9.890625 5.125-15.28125 5.578125-4.476563.371094-10.367187-1.285156-12.671875-5.8125-2.117188-4.167968-.527344-9.425781 1.992188-12.792968 2.996093-4.007813 7.476562-6.707032 11.808593-9.128907.972657-.542969 1.320313-1.769531.777344-2.742187s-1.769531-1.316406-2.742187-.777344c-4.503907 2.519531-9.601563 5.59375-13.070313 10.230469-3.988281 5.332031-4.910156 12.019531-2.355469 17.039062 3.164063 6.21875 10.613282 8.496094 16.597656 8 4.722657-.394531 9.125-2.1875 13.152344-4.160156.105469 3.863281 2.222656 7.828125 5.742188 10.070313 4.128906 2.628906 9.785156 3.007812 15.132812 1.015624 2.097656-.785156 4.03125-1.863281 5.789063-3.070312-.925781 4.644531-.347657 9.445312 1.796875 13.453125 3.015625 5.648437 9.226562 9.222656 15.28125 9.222656 1.355468 0 2.699218-.179687 4.003906-.554687 3.757812-1.082032 7.113281-3.964844 8.976562-7.714844 1.746094-3.511719 2.007813-7.433594.71875-10.761719-.398437-1.039062-1.570312-1.550781-2.605468-1.152343zm0 0"/><path d="m162.914062 405.324219c-3.914062-2.363281-6.238281-7.355469-5.519531-11.871094.148438-.933594-.367187-1.839844-1.246093-2.191406-.878907-.347657-1.875-.042969-2.40625.734375-1.742188 2.546875-3.539063 5.175781-6.023438 6.769531-1.960938 1.257813-5.003906 1.929687-7.058594.429687-1.730468-1.261718-2.414062-4.078124-1.585937-6.558593.75-2.253907 2.558593-4.390625 5.375-6.347657.910156-.636718 1.136719-1.894531.5-2.808593-.632813-.914063-1.894531-1.136719-2.804688-.5-3.542969 2.464843-5.863281 5.285156-6.894531 8.382812-1.402344 4.203125-.152344 8.761719 3.035156 11.085938 3.605469 2.632812 8.429688 1.75 11.609375-.292969 1.457031-.933594 2.6875-2.089844 3.78125-3.335938.980469 4.074219 3.542969 7.773438 7.15625 9.957032 2.4375 1.46875 5.265625 2.199218 8.097657 2.195312 3.378906 0 6.757812-1.03125 9.476562-3.066406 5.003906-3.738281 7.390625-10.566406 5.808594-16.609375-.277344-1.074219-1.382813-1.71875-2.457032-1.4375-1.078124.28125-1.722656 1.382813-1.441406 2.460937 1.160156 4.421876-.660156 9.621094-4.324218 12.359376-3.664063 2.738281-9.164063 3.007812-13.078126.644531zm0 0"/></svg>